<svg version="1.2" xmlns="http://www.w3.org/2000/svg" viewBox="0 0 2108 1356" width="2108" height="1356">
	<title>light-logo</title>
	<style>
		.s0 { fill: #002ea1 } 
		.s1 { fill: #575045 } 
		.s2 { fill: #062675 } 
		.s3 { fill: #002d7a } 
		.s4 { fill: #042883 } 
		.s5 { fill: #444039 } 
		.s6 { fill: #05267e } 
		.s7 { fill: #032680 } 
		.s8 { fill: #00307d } 
		.s9 { fill: #052372 } 
		.s10 { fill: #0a2c82 } 
		.s11 { fill: #052f8a } 
		.s12 { fill: #0c2e88 } 
		.s13 { fill: #042c94 } 
		.s14 { fill: #06328a } 
	</style>
	<path class="s0" d="m772 0q79.4 0 158.7 0 1.2 0 2.4 0 25.6 0 51.2-0.1 12.6 0 25.2 0 1.2 0 2.5 0 40.4 0 80.8 0 41.5 0 83.1 0 5.9 0 11.8 0 1.2 0 2.4 0 18.5 0 37 0 18.8 0 37.5 0 10.1 0 20.2 0c32.4 0 64.8 0.3 97.2 1.1q2.1 0.1 4.2 0.1 10.6 0.3 21.2 0.6 1.6 0.1 3.2 0.2c73.7 2.8 148.2 9.9 220.4 25.1q1 0.2 2 0.4 14.6 3.1 29 6.6 1 0.2 2 0.5c69.1 16.9 140.1 44 196.4 88.3 2.3 1.7 4.7 3.4 7 5.1 20.8 15 39.5 32.8 57.5 50.9q3.4 3.3 6.8 6.7c6.9 6.8 13.5 13.6 19.5 21.2 2 2.5 4 4.8 6.2 7.1 30.4 33.5 54.4 74.4 75.6 114.2q0.8 1.5 1.6 3.1c15.4 28.9 27 59.8 37.4 90.9q0.6 1.8 1.2 3.7c13.6 40.9 22.2 83.6 27.8 126.3 0.2 1.6 0.2 1.6 0.4 3.2 4.3 33.3 5.8 66.9 5.8 100.5q0 1.6 0 3.3c0 20.1-0.7 40-2.2 60q-0.1 1-0.2 2.1c-6.6 85.2-26.4 168.4-115.8 334.9q-0.7 1-1.4 2c-7.1 10.3-14.8 20.2-22.6 30q-0.7 0.8-1.3 1.7c-4.8 6-9.7 11.6-14.9 17.2-2.4 2.6-4.5 5.3-6.7 8-5.6 6.9-11.8 13.1-18.2 19.4q-3 3-6 6c-6.1 6.1-12.3 12.1-18.9 17.7q-2.6 2.4-5.1 4.8c-5.8 5.2-11.9 10-18.1 14.8q-2.6 2-5.2 4.1c-16.1 12.9-33 24.4-50.6 35.3q-1 0.6-2 1.2c-70.1 43.9-149.3 70.8-460.8 107q-11.7 0-23.3 0-21.6 0-43.1 0-21.3 0-42.6 0-1.3 0-2.7 0-6.7 0-13.5 0-47.7 0-95.4 0-46.3-0.1-92.6-0.1-1.4 0-2.9 0-14.3 0-28.7 0-29.3 0-58.5 0-1.4 0-2.7 0-89.6 0-179.2-0.1c0-12.2 0-24.4 0-37 4.8 0 9.6-0.1 14.6-0.1q4.6-0.1 9.3-0.1 7.3-0.1 14.6-0.1c41.6-0.3 83.1-4.7 115.2-34.3 4.9-5.1 9.1-10.7 13.3-16.4q0.9-1.2 1.8-2.4c21.9-32.6 19.9-84.2 20.7-121.8q0.1-1.3 0.1-2.7c0.4-17.9 0.5-35.8 0.5-53.8q0-6.5 0-13.1 0-11.4 0-22.8 0-16.9 0-33.9 0-30.3 0-60.6 0-26.6 0-53.1 0-1.8 0-3.6 0-7.1 0-14.3 0-67.2 0-134.3 0-59.6 0-119.1 0-67.1 0-134.1 0-7.2 0-14.3 0-1.8 0-3.6 0-26.5 0-53 0-30.2 0-60.3 0-16.9 0-33.7 0-11.3 0-22.6 0-6.4 0-12.8c0-17.8-0.1-35.6-0.6-53.4q0-1.2 0-2.5c-0.5-75.5-0.5-75.5-34.8-139.7-24.8-22.2-59.6-31.6-92-33q-1.5-0.1-3-0.1c-12.1-0.5-24.1-0.7-36.1-1q-3.5 0-6.9-0.1-8.4-0.2-16.7-0.3c0-12.2 0-24.4 0-37zm510 79q-2.2 0.3-4.4 0.5c-33.6 3.8-66.8 9.9-99.8 17.3q-1.2 0.3-2.5 0.6-3.6 0.8-7.2 1.6-1 0.3-2.1 0.5c-5.2 1.2-9.9 2.8-15 4.5 0 371.3 0 742.5 0 1125 32.3 7.1 32.3 7.1 64.8 13.3 1.4 0.2 1.4 0.2 2.8 0.4 25.9 4.6 51.9 8 78.1 10.6q1.2 0.1 2.5 0.2c19.3 1.9 38.4 2.7 57.8 2.8q1.6 0 3.2 0c51.1-0.1 101.4-6.3 150.6-20.4q3.2-0.9 6.3-1.8c60.7-16.9 115.8-49.2 164.9-88.1q0.8-0.6 1.7-1.3c6.3-5.1 12.3-10.4 18.3-15.9 2.1-2 4.3-4 6.6-5.9 5.3-4.6 10.2-9.5 15.2-14.5q2.4-2.5 4.9-4.9c5.8-5.8 11.3-11.6 16.3-18.1 2.1-2.5 4.2-4.9 6.4-7.3 4.7-5.1 8.9-10.5 13-16q1.9-2.5 3.8-4.9c6.1-7.8 11.7-15.8 17.1-24.1 0.6-1 0.6-1 1.3-1.9 46.8-72.1 75.5-153.1 92.6-273.7q0.1-1.2 0.2-2.4c2.9-28.8 4-57.5 3.9-86.4q0-3.8 0-7.5c0-26.5-0.7-52.8-3.3-79.2q-0.1-1.2-0.2-2.4-1.6-16.3-3.8-32.6-0.1-1-0.3-2c-9.7-72.3-30.6-145.3-66.7-209-0.9-1.6-0.9-1.6-1.9-3.3-8.5-15.1-17.4-29.7-27.7-43.7q-1.8-2.6-3.7-5.2c-5.3-7.4-11-14.6-16.7-21.8q-1.2-1.5-2.4-2.9c-4.5-5.6-9.2-11-14-16.3q-2.1-2.2-4-4.5c-5.3-6.1-10.9-11.8-16.6-17.5q-2.6-2.6-5.1-5.2c-5.9-5.9-11.9-11.5-18.5-16.7-2.5-2-4.9-4.1-7.3-6.3-5.2-4.8-10.8-9.1-16.5-13.4q-2.3-1.7-4.5-3.4c-50.3-38.3-107.4-65-168.1-81.8q-1.6-0.5-3.3-0.9c-23-6.3-46.5-10.4-70.1-13.3q-1.8-0.3-3.6-0.5-6-0.7-12-1.3c-1.3-0.1-1.3-0.1-2.7-0.3-18.5-1.7-36.9-2.1-55.4-2q-3.5 0-7 0c-22.1 0-43.9 0.5-65.9 3.3z"/>
	<path class="s1" d="m159 0c187.4 0 374.9 0 568 0 0 12.2 0 24.4 0 37-4.8 0.1-4.8 0.1-9.7 0.2q-4.8 0.1-9.6 0.2-3.3 0-6.5 0.1c-11.4 0.2-22.8 0.5-34.1 1q-1.3 0-2.6 0.1c-32.3 1.5-63.3 10.6-88.5 31.4q-0.9 0.7-1.8 1.4c-24 19.3-28.8 53.4-32.1 82q-1.2 10.8-2.1 21.6-0.1 1.6-0.3 3.2c-0.9 13.1-0.9 26.2-0.9 39.3q0 5.4 0 10.8 0 9.5 0 18.9 0 14.1 0 28.2 0 23.7-0.1 47.3 0 32.4 0 64.8 0 15.1-0.1 30.2 0 1.5 0 3.1 0 36 0 72 0 1.5-0.1 3.2 0 22.3 0 44.6 0 27.1-0.1 54.1 0 1.6 0 3.2 0 35.9 0 71.8 0 1.5 0 3-0.1 15.1-0.1 30.2 0 32.3 0 64.7-0.1 23.6-0.1 47.1 0 12.8 0 25.6c-0.1 80.4-0.1 80.4-2.5 117.1-0.1 1.5-0.1 1.5-0.2 3-4.4 66.4-14.9 133.5-42.5 194.6-0.5 1.2-0.5 1.2-1.1 2.4-14.1 31.4-33.2 61.5-56.9 86.6q-1.8 2.1-3.6 4.2c-2.7 3.1-5.6 6-8.6 8.9-1.7 1.8-3.4 3.7-5 5.6-3.8 4.4-7.9 8.4-12.2 12.3q-1.1 1.1-2.3 2.1-2.2 2.1-4.4 4.1-2.2 2.1-4.4 4.2c-25.4 23.3-56.4 40.4-88.5 52.6-1.2 0.4-1.2 0.4-2.4 0.9-27.3 10.3-57.6 15.3-86.7 16.7-1.3 0-1.3 0-2.6 0.1-59.2 2.8-119.6-8.2-164.9-48.9-6.2-5.6-12.1-11.3-17.4-17.8-1-1.2-1-1.2-2.1-2.3-19.5-22.7-29.4-51.1-29.2-80.8q0-1.1 0-2.2c0-10.9 0.5-21.2 3.3-31.7 0.2-1 0.2-1 0.5-2 6.3-24.5 21.5-41.2 43-54.1 22.8-12.3 51.3-17.2 76.6-10.5 31.6 9.6 49.5 33.2 64.9 61.2q3 5.7 6 11.4c0.8 1.6 0.8 1.6 1.6 3.1 8 15.4 15.3 31 22.1 46.9 2.9 6.8 6 13.5 9.4 20.1q0.5 0.9 1 1.8c8.2 15.2 19.9 27.5 36.5 33.4 12.7 2.7 23.8 0.9 35.4-5.3 7.6-4.9 14.6-10.7 20-18q0.6-0.8 1.1-1.5c23.4-31.8 26.1-73.3 26-111.5q0-2.5 0-5 0-6.8 0-13.6 0-7.4 0-14.9 0-13 0-26 0-19.3 0.1-38.6 0-36.6 0-73.1 0-4 0-8.1 0-1 0-2 0-22.2 0-44.4 0-9.1 0-18.3 0-1 0-2 0-57.9 0-115.8 0-2.2 0-4.3 0-9.8 0-19.6 0-4.4 0-8.7 0-2.2 0-4.4 0-68.9 0-137.9 0-17.3 0-34.7c0-1 0-1 0-2.1q0-33 0-66 0-1 0-2.1 0-22.8 0-45.6 0-8.1 0-16.3 0-2 0-4 0-33.2 0-66.4 0.1-32.4 0-64.8 0-19.2 0.1-38.4 0-12.9 0-25.8-0.1-7.3 0-14.6c0-18.5-0.2-37-1.2-55.5q-0.1-1.1-0.1-2.3c-1.2-21-3.1-42.5-9-62.7q-0.4-1.5-0.9-3.1c-7.9-24.2-28.6-37.9-50.1-49-15.4-7.7-31.2-12.4-48-15.9q-1.6-0.4-3.3-0.7c-5.8-1.1-11.6-1.5-17.5-1.8q-1.3-0.1-2.6-0.1c-11.3-0.6-22.6-0.8-33.8-1q-3.4 0-6.7-0.1-8.1-0.2-16.1-0.3c0-12.2 0-24.4 0-37z"/>
	<path class="s2" d="m1146 116q2.5 0 5 0c0 364.3 0 728.6 0 1104q-2.5-0.5-5-1c0-364 0-728 0-1103z"/>
	<path class="s3" d="m960 1156c1.9 0.3 1.9 0.3 4 1 1.1 3.3 1.1 5.7 1.1 9.2q-0.1 1.6-0.1 3.3 0 1.2 0 2.5-3 0-6 0c-0.1-5.4-0.1-10.6 1-16z"/>
	<path class="s4" d="m958 152c2.4 2.4 2.4 3.4 2.9 6.6 0.9 4.8 2.3 8.9 4.1 13.4q-1 1-2 2c-0.4 2.1-0.4 2.1-0.4 4.6q-0.1 1.3-0.1 2.7-0.1 1.4-0.1 2.8-0.1 1.4-0.1 2.9-0.2 3.5-0.3 7-0.5 0-1 0c-1-13.9-2-27.7-3-42z"/>
	<path class="s5" d="m540 140q1.5 0 3 0c-0.5 8-1.1 16-2 24q-0.5 0-1 0c0-7.9 0-15.8 0-24z"/>
	<path class="s6" d="m1451.6 78.9c1.2 0.1 1.2 0.1 2.4 0.1q0.5 2.5 1 5c-5.9-0.7-11.9-1.3-18-2q0-0.5 0-1 1.2-0.1 2.4-0.2 1.5-0.1 3-0.2 1.5-0.2 3.1-0.3c2.9-0.4 3.1-1.3 6.1-1.4z"/>
	<path class="s7" d="m1423 1253q0 1.5 0 3c-7.3-0.3-14.5-0.7-22-1q0-0.5 0-1c7.3-0.6 14.6-1.1 22-1z"/>
	<path class="s8" d="m1561 110q3 0 6 0 0 3 0 6c-2.3-0.7-4.6-1.3-7-2q0.5-2 1-4z"/>
	<path class="s9" d="m2092 503q0.5 0 1 0c0.7 4.3 1.3 8.6 2 13q-1.5 0-3 0c0-4.3 0-8.6 0-13z"/>
	<path class="s10" d="m1435 4c5.3 0 10.6 0 16 0q0 0.5 0 1c-4 0-7.9 0-12 0q0 1.5 0 3-1 0-2 0-1-2-2-4z"/>
	<path class="s11" d="m1641 1288q2.5 0 5 0 0.5 1.5 1 3-3 0.5-6 1 0-2 0-4z"/>
	<path class="s12" d="m2100 734q1.5 0 3 0c0 2.6 0 5.3 0 8-2.6-3.1-3-3.7-3-8z"/>
	<path class="s13" d="m2090 493q0.5 0 1 0 0.5 3 1 6-2.5 0.5-5 1 0-2 0-4 1.5 0 3 0 0-1.5 0-3z"/>
	<path class="s14" d="m1855 448q2.5 0 5 0c-1.2 2.5-2 4-4 6q-0.5-3-1-6z"/>
</svg>