<?xml version="1.0" encoding="UTF-8"?>
<svg version="1.1" xmlns="http://www.w3.org/2000/svg" width="3000" height="3000">
<path d="M0 0 C52.90185474 -0.01709746 105.80370965 -0.03307091 158.70556641 -0.04234314 C159.49121217 -0.0424812 160.27685793 -0.04261925 161.08631113 -0.04276149 C178.16930742 -0.04575589 195.25230373 -0.04852586 212.33530009 -0.05106533 C220.71539538 -0.05231243 229.09549066 -0.05360902 237.47558594 -0.05493164 C238.3094111 -0.0550624 239.14323626 -0.05519316 240.00232884 -0.05532788 C266.92483744 -0.05957294 293.8473439 -0.06707191 320.76985121 -0.07629722 C348.48582363 -0.08577695 376.20179488 -0.09189628 403.9177689 -0.09391499 C407.8517141 -0.09420305 411.7856593 -0.09452869 415.71960449 -0.09487724 C416.49369876 -0.09494467 417.26779302 -0.09501209 418.06534469 -0.09508156 C430.41892803 -0.09625345 442.77250768 -0.10086451 455.12608953 -0.10683203 C467.6105126 -0.11278681 480.09493211 -0.11495142 492.57935655 -0.11350138 C499.31729398 -0.11281772 506.05521955 -0.1137493 512.79315567 -0.11920547 C545.20916598 -0.1441528 577.59428814 0.16863261 610 1 C611.4081533 1.03536568 612.81630863 1.07065122 614.22446632 1.10584152 C621.29705825 1.28428582 628.36743384 1.48926061 635.4375 1.75 C636.4800293 1.78812805 637.52255859 1.8262561 638.59667969 1.86553955 C712.26360759 4.65855325 786.83180402 11.76246858 859 27 C859.66122864 27.13859436 860.32245728 27.27718872 861.00372314 27.41998291 C870.70640667 29.4570383 880.36747182 31.65322354 890 34 C890.66499512 34.16179749 891.32999023 34.32359497 892.01513672 34.49029541 C961.08392116 51.37244911 1032.08271215 78.47031989 1088.40234375 122.76269531 C1090.69643874 124.5393569 1093.06667283 126.20272012 1095.4375 127.875 C1116.17984765 142.86606035 1134.87931648 160.69204214 1152.93725586 178.75195312 C1155.18909428 181.00159272 1157.44884639 183.24307761 1159.70898438 185.484375 C1166.55876532 192.30811921 1173.24298405 199.08715809 1179.19506836 206.72143555 C1181.15173343 209.19154985 1183.23553013 211.49982901 1185.375 213.8125 C1215.80314016 247.34662678 1239.75479106 288.24874429 1261 328 C1261.54011719 329.00869141 1262.08023438 330.01738281 1262.63671875 331.05664062 C1278.01250174 360.04928028 1289.64113737 390.91275184 1300 422 C1300.40943848 423.22170898 1300.81887695 424.44341797 1301.24072266 425.70214844 C1314.82222331 466.6313185 1323.41164834 509.28147732 1329 552 C1329.20834473 553.58433838 1329.20834473 553.58433838 1329.42089844 555.20068359 C1333.71914456 588.51967617 1335.21924091 622.11106937 1335.1875 655.6875 C1335.18722809 656.7860733 1335.18695618 657.88464661 1335.18667603 659.01651001 C1335.16406908 679.06597911 1334.54257701 699.01006822 1333 719 C1332.94672546 719.6916626 1332.89345093 720.3833252 1332.83856201 721.09594727 C1326.1845118 806.25783999 1306.39423072 889.52029794 1217 1056 C1216.53932129 1056.66386719 1216.07864258 1057.32773438 1215.60400391 1058.01171875 C1208.45750002 1068.30487905 1200.7795484 1078.17971913 1193 1088 C1192.55736816 1088.55880859 1192.11473633 1089.11761719 1191.65869141 1089.69335938 C1186.91664855 1095.65126125 1181.95064636 1101.34444764 1176.75 1106.90625 C1174.40707616 1109.46608629 1172.28190195 1112.16993652 1170.12890625 1114.890625 C1164.51371423 1121.79018614 1158.25799866 1128.00739356 1151.94311523 1134.26269531 C1149.93215361 1136.25529758 1147.92941305 1138.25588933 1145.92773438 1140.2578125 C1139.78529414 1146.38311051 1133.61792581 1152.38528808 1127 1158 C1125.28732679 1159.57863792 1123.57852976 1161.16149958 1121.875 1162.75 C1116.08407684 1168.02972443 1109.9836102 1172.83453459 1103.78076172 1177.61767578 C1102.05223589 1178.95945166 1100.33830927 1180.31756862 1098.62890625 1181.68359375 C1082.46725192 1194.58380135 1065.57062187 1206.1049549 1048 1217 C1047.35063477 1217.40637695 1046.70126953 1217.81275391 1046.03222656 1218.23144531 C975.87852173 1262.05294721 896.73084528 1288.96473862 585.21085556 1325.23522231 C577.42407574 1325.22450642 569.63730773 1325.22590926 561.85052235 1325.22749493 C547.49010194 1325.23009821 533.12970019 1325.22353455 518.7692852 1325.21146011 C504.58258407 1325.19956274 490.39589073 1325.19191556 476.20918465 1325.18975449 C475.32196834 1325.18961701 474.43475203 1325.18947953 473.52065038 1325.18933788 C469.01360886 1325.18866107 464.50656733 1325.18805836 459.99952579 1325.18748413 C428.20467534 1325.1833006 396.409835 1325.1698746 364.61499023 1325.15087891 C333.75659234 1325.13246417 302.89819722 1325.11831953 272.03979492 1325.10986328 C271.0860036 1325.10960023 270.13221228 1325.10933718 269.14951819 1325.10906615 C259.56979987 1325.10642876 249.99008152 1325.10387719 240.41036316 1325.10138843 C220.90118455 1325.09631812 201.39200611 1325.09067562 181.88282776 1325.08468628 C180.98613276 1325.0844117 180.08943776 1325.08413712 179.16557018 1325.08385422 C119.44370917 1325.06550109 59.72185408 1325.03366116 0 1325 C0 1312.79 0 1300.58 0 1288 C4.80949219 1287.96261719 9.61898438 1287.92523437 14.57421875 1287.88671875 C17.66865186 1287.85635042 20.76303348 1287.82514543 23.85742188 1287.79101562 C28.74109886 1287.73722761 33.62467409 1287.68610786 38.50854492 1287.65356445 C80.11806089 1287.36777637 121.60447426 1283.01099612 153.74609375 1253.35546875 C158.61839526 1248.26361812 162.84804803 1242.6844028 167 1237 C167.58910156 1236.21238281 168.17820312 1235.42476562 168.78515625 1234.61328125 C190.73332545 1202.01293393 188.66472311 1150.39926027 189.54675102 1112.81849003 C189.5680383 1111.93264556 189.58932558 1111.0468011 189.61125792 1110.13411286 C190.03576861 1092.19733523 190.14395365 1074.26825286 190.12846755 1056.32717923 C190.12586083 1051.96096482 190.12921753 1047.59475346 190.13171089 1043.22853953 C190.13527446 1035.62487506 190.13524329 1028.02121772 190.13266373 1020.41755295 C190.12883812 1009.10955376 190.13083701 997.80156045 190.13387203 986.49356128 C190.13910567 966.28286632 190.1386943 946.07217454 190.13579312 925.86147928 C190.13326697 908.17424454 190.13262577 890.48701096 190.13381577 872.79977608 C190.13389215 871.62168655 190.13396854 870.44359702 190.13404724 869.22980781 C190.13435863 864.44629444 190.13467703 859.66278107 190.135007 854.8792677 C190.13805864 810.10452986 190.13530422 765.32979404 190.1299101 720.55505651 C190.12516501 680.86604896 190.12559024 641.17704463 190.13037109 601.48803711 C190.13573769 556.7881128 190.13784243 512.08819026 190.13475883 467.38826567 C190.13443816 462.61431317 190.13412532 457.84036066 190.13381577 453.06640816 C190.13373669 451.89113478 190.13365761 450.71586141 190.13357614 449.50497368 C190.13244362 431.83789413 190.13375963 414.17081587 190.13629532 396.5037365 C190.13916719 376.39538054 190.13841303 356.28702823 190.13301457 336.17867272 C190.13010012 324.95574783 190.12985464 313.73283087 190.13366075 302.5099062 C190.13593073 294.97941727 190.13445877 287.44893458 190.13015598 279.91844657 C190.12781528 275.65090148 190.12688155 271.38337194 190.13056196 267.11582743 C190.144747 249.30174255 189.98575871 231.50245979 189.54284477 213.6933527 C189.52262087 212.86699903 189.50239696 212.04064535 189.48156021 211.18925066 C189.01494667 135.65841168 189.01494667 135.65841168 154.65429688 71.48632812 C129.94382395 49.28482883 95.10671243 39.87385897 62.68359375 38.4921875 C61.68819077 38.44945206 60.69278778 38.40671661 59.66722107 38.36268616 C47.63637907 37.87110387 35.60084567 37.65308327 23.5625 37.4375 C21.25845868 37.39413784 18.95442217 37.35051917 16.65039062 37.30664062 C11.10031387 37.20101977 5.55017889 37.10060101 0 37 C0 24.79 0 12.58 0 0 Z M510 79 C508.54336116 79.1699488 507.08648143 79.33784281 505.62939453 79.50390625 C472.03328354 83.34246459 438.79848903 89.41172359 405.8125 96.8125 C404.96874817 97.00122681 404.12499634 97.18995361 403.25567627 97.38439941 C400.86288701 97.92280497 398.47209778 98.46917681 396.08203125 99.01953125 C395.39332443 99.17551285 394.70461761 99.33149445 393.99504089 99.49220276 C388.8294373 100.70115368 384.09174874 102.30275042 379 104 C379 475.25 379 846.5 379 1229 C411.33075076 1236.05854208 411.33075076 1236.05854208 443.8125 1242.25 C445.18432434 1242.49030945 445.18432434 1242.49030945 446.5838623 1242.73547363 C472.50994989 1247.26614955 498.49811408 1250.66973544 524.6875 1253.25 C525.52978149 1253.33326538 526.37206299 1253.41653076 527.23986816 1253.50231934 C546.50245281 1255.38531343 565.64436516 1256.23876632 585 1256.25 C586.05881378 1256.25067474 587.11762756 1256.25134949 588.20852661 1256.25204468 C639.34257406 1256.20092544 689.5988145 1250.0231108 738.83349609 1235.90771484 C740.92267205 1235.30882847 743.01412711 1234.71782889 745.10791016 1234.13525391 C805.797509 1217.18194388 860.91386584 1184.93123219 910 1146 C910.54769043 1145.56703613 911.09538086 1145.13407227 911.65966797 1144.68798828 C918.01974813 1139.6427824 924.04385372 1134.30320758 929.98046875 1128.7734375 C932.13723246 1126.76848745 934.34782853 1124.8431675 936.5859375 1122.9296875 C941.87756003 1118.31589931 946.82888065 1113.35716072 951.7902832 1108.39501953 C953.42575882 1106.76172552 955.06907708 1105.1366153 956.71289062 1103.51171875 C962.52022675 1097.73463743 967.95899174 1091.86994521 973.03955078 1085.43408203 C975.07944871 1082.90135696 977.22864344 1080.51098427 979.4375 1078.125 C984.09011912 1073.01196544 988.27043192 1067.59815622 992.41870117 1062.07592773 C993.67083087 1060.43213295 994.94040287 1058.80162609 996.21606445 1057.17602539 C1002.32068538 1049.38352566 1007.92957489 1041.36733038 1013.3125 1033.0625 C1013.9263707 1032.11899689 1013.9263707 1032.11899689 1014.55264282 1031.15643311 C1061.38394788 959.10809713 1090.06779606 878.09343728 1107.1875 757.5 C1107.26631409 756.71612915 1107.34512817 755.9322583 1107.42633057 755.12463379 C1110.28112859 726.34373225 1111.38298724 697.63360209 1111.31785583 668.72707367 C1111.31240189 666.20462393 1111.310044 663.68218361 1111.3079834 661.159729 C1111.27432101 634.67878462 1110.60426066 608.3693429 1108 582 C1107.92503296 581.22142639 1107.85006592 580.44285278 1107.77282715 579.64068604 C1106.7208529 568.73246566 1105.46412997 557.86043792 1104 547 C1103.9112561 546.33732117 1103.82251221 545.67464233 1103.7310791 544.99188232 C1093.98967719 472.74425595 1073.08730315 399.70513719 1037 336 C1036.08395996 334.37698975 1036.08395996 334.37698975 1035.14941406 332.72119141 C1026.59855691 317.62611631 1017.69004267 302.96881758 1007.43066406 288.95507812 C1006.18739729 287.25608832 1004.96306803 285.54327204 1003.7421875 283.828125 C998.41051285 276.35946334 992.72441446 269.16914764 987 262 C986.22398437 261.02675781 985.44796875 260.05351563 984.6484375 259.05078125 C980.13256073 253.45779606 975.43250317 248.08097566 970.5546875 242.80078125 C969.21396466 241.33090621 967.87740884 239.85634906 966.5859375 238.34301758 C961.33900672 232.19828936 955.67816935 226.49205224 949.96777344 220.7824707 C948.26205402 219.07456944 946.56450973 217.35881955 944.8671875 215.64257812 C938.9656302 209.71139356 932.99395895 204.12780752 926.41650391 198.94287109 C923.88832024 196.91020938 921.50498823 194.76593804 919.125 192.5625 C913.86812081 187.77973808 908.28885316 183.47847696 902.61279297 179.21435547 C901.09134537 178.06877867 899.57858064 176.91169623 898.06640625 175.75390625 C847.78353033 137.4788813 790.71808812 110.83697534 730 94 C728.90155762 93.69433105 727.80311523 93.38866211 726.67138672 93.07373047 C703.71221579 86.77973164 680.16343993 82.74012779 656.5625 79.75 C655.38236328 79.59901855 654.20222656 79.44803711 652.98632812 79.29248047 C648.99510207 78.81329564 645.0006327 78.39082298 641 78 C639.68245224 77.8691954 639.68245224 77.8691954 638.33828735 77.73574829 C619.8419732 75.95721517 601.41783126 75.63623442 582.85562134 75.68194199 C580.52695649 75.68758615 578.19829893 75.69040409 575.86962891 75.69302368 C553.76344171 75.72917857 531.95892465 76.21643575 510 79 Z " fill="#002EA1" transform="translate(1445,876)"/>
<path d="M0 0 C187.44 0 374.88 0 568 0 C568 12.21 568 24.42 568 37 C563.18535156 37.09087891 563.18535156 37.09087891 558.2734375 37.18359375 C555.08250562 37.24581868 551.89159449 37.30902327 548.70068359 37.37231445 C546.52296893 37.41499907 544.34523478 37.45670326 542.16748047 37.49731445 C530.80133541 37.70993749 519.44012552 37.96930269 508.08203125 38.45703125 C507.22036346 38.49203232 506.35869568 38.52703339 505.47091675 38.56309509 C473.20163472 40.05452259 442.15352397 49.21237368 417 70 C416.39800781 70.46792969 415.79601563 70.93585938 415.17578125 71.41796875 C391.16182513 90.68309759 386.41368232 124.79343518 383.125 153.41015625 C382.34051486 160.60088752 381.61523612 167.79279233 381 175 C380.90980607 176.0511786 380.81961213 177.1023572 380.72668505 178.1853897 C379.76312246 191.27151979 379.84800446 204.3608748 379.84899596 217.47617009 C379.84815907 221.08233191 379.84154228 224.68848419 379.83568525 228.29464072 C379.8262162 234.60244023 379.82034216 240.91023492 379.81687737 247.21804047 C379.81170133 256.59925227 379.80083635 265.98045158 379.78879793 275.36165678 C379.76867179 291.1546384 379.75295858 306.94762143 379.73963928 322.74061012 C379.72136942 344.33350021 379.69666124 365.92637958 379.67026538 387.51926108 C379.6579582 397.5942572 379.64596555 407.6692537 379.63405609 417.7442503 C379.63286357 418.7527965 379.63167104 419.76134271 379.63044238 420.80045092 C379.60214811 444.791851 379.57694231 468.78325418 379.55224609 492.7746582 C379.5511649 493.82390408 379.5500837 494.87314996 379.54896974 495.95419117 C379.53363171 510.84232902 379.51842762 525.730467 379.50325525 540.61860502 C379.48486542 558.6618338 379.46639794 576.7050625 379.44775391 594.74829102 C379.44667444 595.79407097 379.44559497 596.83985092 379.4444828 597.91732117 C379.41978291 621.83044258 379.3942051 645.74356262 379.36594391 669.65668011 C379.36475366 670.66412036 379.36356341 671.67156061 379.36233709 672.70952935 C379.35042815 682.77288864 379.33836945 692.83624773 379.32608688 702.89960657 C379.29981333 724.45375464 379.27615102 746.00790097 379.25791349 767.56205743 C379.24456506 783.29066787 379.22787816 799.0192718 379.20781839 814.74787513 C379.19707682 823.25236622 379.18787863 831.756852 379.18312263 840.26134872 C379.13624853 920.69939243 379.13624853 920.69939243 376.6875 957.4375 C376.59137924 958.90700104 376.59137924 958.90700104 376.49331665 960.40618896 C372.10254733 1026.84281362 361.5774759 1093.92365079 334 1155 C333.46487793 1156.19786133 333.46487793 1156.19786133 332.91894531 1157.41992188 C318.81514425 1188.82765453 299.66402157 1218.90924948 276 1244 C274.78609287 1245.39098872 273.57757293 1246.78670077 272.375 1248.1875 C269.65791888 1251.31151724 266.79684906 1254.23004149 263.83984375 1257.12573242 C262.07015644 1258.92853092 260.43724231 1260.79183239 258.8046875 1262.71875 C254.99607853 1267.09734116 250.87814243 1271.05781846 246.625 1275 C245.86896484 1275.70423096 245.11292969 1276.40846191 244.33398438 1277.1340332 C242.86042656 1278.50381263 241.38493743 1279.87151831 239.90722656 1281.23681641 C238.42937447 1282.60305397 236.95918765 1283.97758543 235.4921875 1285.35546875 C210.09743017 1308.70868677 179.07162833 1325.7995916 147 1338 C145.82244141 1338.44980225 145.82244141 1338.44980225 144.62109375 1338.90869141 C117.27622343 1349.15096095 86.98850964 1354.22922366 57.875 1355.5625 C56.62203125 1355.62727539 56.62203125 1355.62727539 55.34375 1355.69335938 C-3.94756966 1358.49767855 -64.30019414 1347.52272199 -109.5546875 1306.8203125 C-115.75196912 1301.18053207 -121.69015243 1295.49690484 -127 1289 C-128.0209375 1287.84564453 -128.0209375 1287.84564453 -129.0625 1286.66796875 C-148.61153217 1264.03046102 -158.46562634 1235.60374505 -158.3125 1205.875 C-158.31067719 1205.1432254 -158.30885437 1204.41145081 -158.30697632 1203.65750122 C-158.26149438 1192.82465051 -157.80541084 1182.52029067 -155 1172 C-154.75056641 1171.00758301 -154.75056641 1171.00758301 -154.49609375 1169.99511719 C-148.24673412 1145.51845864 -133.00874973 1128.78417681 -111.49609375 1115.88671875 C-88.69994407 1103.58443909 -60.24385435 1098.68716595 -34.94433594 1105.41357422 C-3.25201563 1114.97220724 14.64616296 1138.55122192 30 1166.5625 C32.03381222 1170.35779929 34.02294762 1174.17487407 36 1178 C36.81138428 1179.55920166 36.81138428 1179.55920166 37.63916016 1181.14990234 C45.60023519 1196.51865781 52.86824469 1212.10412086 59.67504883 1228.01464844 C62.60493779 1234.82964724 65.67027887 1241.5228404 69.140625 1248.08203125 C69.45377655 1248.67748245 69.7669281 1249.27293365 70.08956909 1249.88642883 C78.33627569 1265.14780297 90.01907092 1277.44528804 106.5625 1283.25 C119.32921095 1286.03546421 130.3944814 1284.23124841 142 1278 C149.61756834 1273.10946367 156.61500484 1267.30907209 162 1260 C162.37721191 1259.49404297 162.75442383 1258.98808594 163.14306641 1258.46679688 C186.49841724 1226.71882875 189.18298275 1185.16216944 189.12863445 1146.9857378 C189.12998444 1145.32402133 189.13177021 1143.66230517 189.13394669 1142.00058958 C189.13864012 1137.46110674 189.13718698 1132.92164415 189.13466892 1128.38216036 C189.13302705 1123.43292753 189.13718398 1118.48369887 189.14057809 1113.5344674 C189.14571954 1104.8684829 189.14715147 1096.20250397 189.14612198 1087.5365181 C189.1445947 1074.6486256 189.14876412 1061.76073927 189.1539966 1048.87284798 C189.16366202 1024.50904952 189.16648122 1000.145253 189.16705366 975.78145287 C189.16711841 973.09595035 189.16718635 970.41044783 189.16725707 967.72494531 C189.16727408 967.05845926 189.16729108 966.39197321 189.1673086 965.70529062 C189.16771765 950.91357169 189.16990954 936.12185319 189.17241292 921.33013449 C189.17344135 915.23256299 189.1744314 909.13499148 189.17542917 903.03741997 C189.17553975 902.3636028 189.17565034 901.68978563 189.17576428 900.99554975 C189.18208662 862.39238753 189.18621362 823.78922558 189.18575573 785.18606281 C189.18573995 783.74213846 189.18572422 782.2982141 189.18570852 780.85428975 C189.18563514 774.33565757 189.18554697 767.81702539 189.18545464 761.29839321 C189.18541351 758.39181327 189.18537337 755.48523334 189.18533332 752.57865341 C189.18531293 751.1238581 189.18529191 749.66906279 189.18527026 748.21426748 C189.18459068 702.25652985 189.19189659 656.29879993 189.20581055 610.34106445 C189.20931199 598.76962696 189.21278164 587.19818946 189.21607494 575.6267519 C189.21637925 574.55779306 189.21637925 574.55779306 189.21668971 573.46723909 C189.22291292 551.47331067 189.22667189 529.47938288 189.22793293 507.48545361 C189.22797288 506.79405267 189.22801283 506.10265174 189.22805399 505.39029926 C189.22890762 490.20586135 189.22916835 475.02142348 189.22888362 459.83698556 C189.22878715 454.4023355 189.22873509 448.96768543 189.22870489 443.53303537 C189.22869697 442.18118217 189.22868677 440.82932897 189.22867426 439.47747577 C189.22849311 417.34657499 189.23472504 395.2156814 189.24362527 373.08478259 C189.25212949 351.49073291 189.25307018 329.89669275 189.24651595 308.30264232 C189.24283819 295.49729576 189.24459915 282.69197821 189.25445829 269.88663477 C189.2605038 261.30429146 189.25911267 252.72196893 189.25198779 244.13962654 C189.24814429 239.26839689 189.24721824 234.39722293 189.25544515 229.52599744 C189.28461563 210.98305017 189.09885902 192.49354756 188.10173512 173.97395611 C188.06234371 173.22877661 188.0229523 172.48359712 187.98236722 171.71583643 C186.84217999 150.72341906 184.91220663 129.2370393 179 109 C178.70480469 107.98679687 178.40960937 106.97359375 178.10546875 105.9296875 C170.17822108 81.70941589 149.49759576 67.96837919 127.99072266 56.85668945 C112.60603066 49.16434346 96.79299087 44.51779778 80 41 C78.91460938 40.76410156 77.82921875 40.52820313 76.7109375 40.28515625 C70.90194587 39.16426632 65.10359141 38.7747325 59.20703125 38.48828125 C58.34301697 38.44582779 57.47900269 38.40337433 56.58880615 38.3596344 C45.3149281 37.83735352 34.0331456 37.64622627 22.75 37.4375 C20.52864041 37.39415719 18.30728618 37.35053886 16.0859375 37.30664062 C10.72401713 37.20076068 5.36203483 37.1004847 0 37 C0 24.79 0 12.58 0 0 Z " fill="#575045" transform="translate(832,876)"/>
<path d="M0 0 C1.65 0 3.3 0 5 0 C5 364.32 5 728.64 5 1104 C3.35 1103.67 1.7 1103.34 0 1103 C0 739.01 0 375.02 0 0 Z " fill="#062675" transform="translate(1819,992)"/>
<path d="M0 0 C1.9375 0.3125 1.9375 0.3125 4 1 C5.09506492 4.28519475 5.09960608 6.73663415 5.0625 10.1875 C5.05347656 11.27417969 5.04445313 12.36085938 5.03515625 13.48046875 C5.02355469 14.31191406 5.01195312 15.14335938 5 16 C3.02 16 1.04 16 -1 16 C-1.09688221 10.55306686 -1.12862175 5.36095333 0 0 Z " fill="#002D7A" transform="translate(1633,2032)"/>
<path d="M0 0 C2.36031668 2.36031668 2.41281738 3.39695262 2.9375 6.625 C3.79968309 11.37045571 5.18234002 15.53847095 7 20 C6.34 20.66 5.68 21.32 5 22 C4.63047951 24.12860662 4.63047951 24.12860662 4.5859375 26.5703125 C4.54726562 27.46621094 4.50859375 28.36210938 4.46875 29.28515625 C4.4378125 30.22230469 4.406875 31.15945313 4.375 32.125 C4.33632812 33.06988281 4.29765625 34.01476563 4.2578125 34.98828125 C4.16338654 37.32532375 4.07781606 39.66235501 4 42 C3.67 42 3.34 42 3 42 C2.01 28.14 1.02 14.28 0 0 Z " fill="#042883" transform="translate(1631,1028)"/>
<path d="M0 0 C0.99 0 1.98 0 3 0 C2.45721733 8.01470585 1.86494739 16.01303902 1 24 C0.67 24 0.34 24 0 24 C0 16.08 0 8.16 0 0 Z " fill="#444039" transform="translate(1213,1016)"/>
<path d="M0 0 C1.2065625 0.0309375 1.2065625 0.0309375 2.4375 0.0625 C2.7675 1.7125 3.0975 3.3625 3.4375 5.0625 C-2.5025 4.4025 -8.4425 3.7425 -14.5625 3.0625 C-14.5625 2.7325 -14.5625 2.4025 -14.5625 2.0625 C-13.78003906 2.00191406 -12.99757813 1.94132813 -12.19140625 1.87890625 C-11.17949219 1.79511719 -10.16757813 1.71132813 -9.125 1.625 C-8.11566406 1.54378906 -7.10632812 1.46257813 -6.06640625 1.37890625 C-3.14883217 1.01022684 -2.96221017 0.07224903 0 0 Z " fill="#05267E" transform="translate(2124.5625,954.9375)"/>
<path d="M0 0 C0 0.99 0 1.98 0 3 C-7.26 2.67 -14.52 2.34 -22 2 C-22 1.67 -22 1.34 -22 1 C-14.65623924 0.42240084 -7.36901413 -0.14738028 0 0 Z " fill="#032680" transform="translate(2096,2129)"/>
<path d="M0 0 C1.98 0 3.96 0 6 0 C6 1.98 6 3.96 6 6 C3.69 5.34 1.38 4.68 -1 4 C-0.67 2.68 -0.34 1.36 0 0 Z " fill="#00307D" transform="translate(2234,986)"/>
<path d="M0 0 C0.33 0 0.66 0 1 0 C1.66 4.29 2.32 8.58 3 13 C2.01 13 1.02 13 0 13 C0 8.71 0 4.42 0 0 Z " fill="#052372" transform="translate(2765,1379)"/>
<path d="M0 0 C5.28 0 10.56 0 16 0 C16 0.33 16 0.66 16 1 C12.04 1 8.08 1 4 1 C4 1.99 4 2.98 4 4 C3.34 4 2.68 4 2 4 C1.34 2.68 0.68 1.36 0 0 Z " fill="#0A2C82" transform="translate(2108,880)"/>
<path d="M0 0 C1.65 0 3.3 0 5 0 C5.33 0.99 5.66 1.98 6 3 C4.02 3.33 2.04 3.66 0 4 C0 2.68 0 1.36 0 0 Z " fill="#052F8A" transform="translate(2314,2164)"/>
<path d="M0 0 C0.99 0 1.98 0 3 0 C3 2.64 3 5.28 3 8 C0.37613513 4.93882432 0 4.26826873 0 0 Z " fill="#0C2E88" transform="translate(2773,1610)"/>
<path d="M0 0 C0.33 0 0.66 0 1 0 C1.33 1.98 1.66 3.96 2 6 C0.35 6.33 -1.3 6.66 -3 7 C-3 5.68 -3 4.36 -3 3 C-2.01 3 -1.02 3 0 3 C0 2.01 0 1.02 0 0 Z " fill="#042C94" transform="translate(2763,1369)"/>
<path d="M0 0 C1.65 0 3.3 0 5 0 C3.84826645 2.46800047 2.95216435 4.04783565 1 6 C0.67 4.02 0.34 2.04 0 0 Z " fill="#06328A" transform="translate(2528,1324)"/>
</svg>
